<svg xmlns="http://www.w3.org/2000/svg" viewBox="0 0 202 50"><path fill="url(#paint0_linear)" d="M.37 0h50v50h-50z"/><path fill="#fff" d="M17.66 34.16a10.4 10.4 0 01-5.08-1.24 9.25 9.25 0 01-4.8-8.37c0-1.82.42-3.46 1.27-4.91a9.14 9.14 0 013.56-3.46 10.4 10.4 0 015.08-1.24c1.4 0 2.7.23 3.89.7a8.06 8.06 0 013.02 2.05l-1.27 1.27a7.53 7.53 0 00-5.59-2.24c-1.5 0-2.85.34-4.08 1.03a7.6 7.6 0 00-2.88 2.8 7.86 7.86 0 00-1.03 4 7.6 7.6 0 003.91 6.8 8.21 8.21 0 004.08 1.03c2.27 0 4.13-.76 5.59-2.27l1.27 1.27c-.83.9-1.85 1.6-3.05 2.08-1.19.47-2.49.7-3.89.7zM35.93 15.1c2.41 0 4.3.58 5.67 1.73a5.88 5.88 0 012.05 4.75c0 2.02-.68 3.6-2.05 4.75-1.37 1.14-3.26 1.7-5.67 1.7h-5.07V34h-2V15.1h7.07zm-.05 11.18c1.87 0 3.3-.4 4.3-1.22a4.29 4.29 0 001.48-3.48c0-1.53-.5-2.7-1.49-3.51-.99-.83-2.42-1.24-4.3-1.24h-5.01v9.45h5.02zM65.36 20.12a7.7 7.7 0 01-3.76-.92 6.85 6.85 0 01-3.56-6.2c0-1.35.31-2.56.94-3.64a6.77 6.77 0 012.64-2.56 7.7 7.7 0 013.76-.92c1.04 0 2 .17 2.88.52.88.35 1.63.85 2.24 1.52l-.94.94a5.58 5.58 0 00-4.14-1.66c-1.1 0-2.11.25-3.02.76A5.63 5.63 0 0059.5 13a5.63 5.63 0 002.9 5.04c.9.5 1.91.76 3.02.76a5.5 5.5 0 004.14-1.68l.94.94a6.14 6.14 0 01-2.26 1.54c-.88.35-1.84.52-2.88.52zm14.12 0c-1.38 0-2.64-.3-3.78-.92a6.96 6.96 0 01-2.64-2.56 7.12 7.12 0 01-.94-3.64 6.81 6.81 0 013.58-6.18 7.68 7.68 0 013.78-.94c1.39 0 2.64.3 3.74.92a7 7 0 013.6 6.2 6.81 6.81 0 01-3.6 6.2c-1.1.61-2.35.92-3.74.92zm0-1.32c1.1 0 2.1-.25 3-.74.9-.5 1.6-1.2 2.1-2.08.5-.9.76-1.89.76-2.98 0-1.1-.25-2.08-.76-2.96-.5-.9-1.2-1.59-2.1-2.08-.9-.5-1.9-.76-3-.76s-2.11.25-3.02.76c-.9.5-1.6 1.19-2.12 2.08-.5.88-.76 1.87-.76 2.96a5.67 5.67 0 005.9 5.8zM104.68 6v14h-1.42V8.8l-5.5 9.42h-.7l-5.5-9.36V20h-1.42V6h1.22l6.08 10.38L103.46 6h1.22zm19.1 0v14h-1.42V8.8l-5.5 9.42h-.7l-5.5-9.36V20h-1.42V6h1.22l6.08 10.38L122.56 6h1.22zm14.46 12.72V20h-9.9V6h9.6v1.28h-8.12v4.98h7.24v1.26h-7.24v5.2h8.42zM151.28 20l-3.2-4.5c-.36.04-.73.06-1.12.06h-3.76V20h-1.48V6h5.24c1.79 0 3.19.43 4.2 1.28a4.35 4.35 0 011.52 3.52c0 1.1-.28 2.02-.84 2.78a4.56 4.56 0 01-2.36 1.62l3.42 4.8h-1.62zm-4.36-5.7c1.39 0 2.45-.3 3.18-.92a3.18 3.18 0 001.1-2.58c0-1.13-.36-2-1.1-2.6-.73-.61-1.8-.92-3.18-.92h-3.72v7.02h3.72zm15.34 5.82a7.7 7.7 0 01-3.76-.92 6.85 6.85 0 01-3.56-6.2c0-1.35.3-2.56.94-3.64a6.77 6.77 0 012.63-2.56 7.7 7.7 0 013.77-.92c1.03 0 2 .17 2.88.52.88.35 1.62.85 2.24 1.52l-.94.94a5.58 5.58 0 00-4.15-1.66c-1.1 0-2.1.25-3.02.76a5.62 5.62 0 00-2.9 5.04 5.62 5.62 0 002.9 5.04c.91.5 1.92.76 3.03.76a5.5 5.5 0 004.14-1.68l.94.94a6.15 6.15 0 01-2.27 1.54c-.88.35-1.84.52-2.88.52zM170.54 6h1.48v14h-1.48V6zm14.81 10.26h-7.8L175.88 20h-1.53l6.4-14h1.46l6.4 14h-1.57l-1.67-3.74zm-.54-1.2l-3.35-7.52-3.37 7.52h6.72zm6.1-9.06h1.48v12.72h7.84V20h-9.32V6zM64.52 31c1.79 0 3.19.43 4.2 1.28a4.36 4.36 0 011.52 3.52c0 1.5-.5 2.67-1.52 3.52-1.01.84-2.41 1.26-4.2 1.26h-3.76V45h-1.48V31h5.24zm-.04 8.28c1.39 0 2.45-.3 3.18-.9a3.18 3.18 0 001.1-2.58c0-1.13-.37-2-1.1-2.6-.73-.61-1.8-.92-3.18-.92h-3.72v7h3.72zM83 45l-3.2-4.5c-.36.04-.73.06-1.12.06h-3.76V45h-1.48V31h5.24c1.79 0 3.19.43 4.2 1.28a4.36 4.36 0 011.52 3.52c0 1.1-.28 2.02-.84 2.78a4.57 4.57 0 01-2.36 1.62l3.42 4.8H83zm-4.36-5.7c1.39 0 2.45-.3 3.18-.92a3.18 3.18 0 001.1-2.58c0-1.13-.37-2-1.1-2.6-.73-.61-1.8-.92-3.18-.92h-3.72v7.02h3.72zm15.37 5.82c-1.38 0-2.64-.3-3.78-.92a6.96 6.96 0 01-2.64-2.56 7.12 7.12 0 01-.94-3.64 6.81 6.81 0 013.58-6.18 7.68 7.68 0 013.78-.94c1.39 0 2.64.3 3.74.92a7 7 0 013.6 6.2 6.8 6.8 0 01-3.6 6.2c-1.1.61-2.35.92-3.74.92zm0-1.32c1.11 0 2.11-.25 3-.74.9-.5 1.6-1.2 2.1-2.08.51-.9.76-1.89.76-2.98 0-1.1-.25-2.08-.76-2.96-.5-.9-1.2-1.59-2.1-2.08-.89-.5-1.89-.76-3-.76-1.1 0-2.11.25-3.02.76-.89.5-1.6 1.19-2.12 2.08-.5.88-.76 1.87-.76 2.96a5.67 5.67 0 005.9 5.8zm15.9-12.8c1.79 0 3.19.43 4.2 1.28a4.36 4.36 0 011.52 3.52c0 1.5-.5 2.67-1.52 3.52-1.01.84-2.41 1.26-4.2 1.26h-3.76V45h-1.48V31h5.24zm-.04 8.28c1.39 0 2.45-.3 3.18-.9a3.18 3.18 0 001.1-2.58c0-1.13-.37-2-1.1-2.6a4.84 4.84 0 00-3.18-.92h-3.72v7h3.72zm18.86 4.44V45h-9.9V31h9.6v1.28h-8.12v4.98h7.24v1.26h-7.24v5.2h8.42zM141.77 45l-3.2-4.5c-.36.04-.73.06-1.12.06h-3.76V45h-1.48V31h5.24c1.79 0 3.19.43 4.2 1.28a4.36 4.36 0 011.52 3.52c0 1.1-.28 2.02-.84 2.78a4.57 4.57 0 01-2.36 1.62l3.42 4.8h-1.62zm-4.36-5.7c1.39 0 2.45-.3 3.18-.92a3.18 3.18 0 001.1-2.58c0-1.13-.37-2-1.1-2.6a4.84 4.84 0 00-3.18-.92h-3.72v7.02h3.72zm11.78-7.02h-4.92V31h11.32v1.28h-4.92V45h-1.48V32.28zm13.46 7.88V45h-1.46v-4.84L155.6 31h1.58l4.8 7.86 4.8-7.86h1.48l-5.6 9.16z"/><defs><linearGradient id="paint0_linear" x1="25.37" x2="25.37" y1="0" y2="50" gradientUnits="userSpaceOnUse"><stop stop-color="#245194"/><stop offset="1" stop-color="#1E69D9"/></linearGradient></defs></svg>