<svg width="152" height="152" viewBox="0 0 152 152" fill="none" xmlns="http://www.w3.org/2000/svg">
<rect width="152" height="152" fill="url(#paint0_linear)"/>
<path d="M51.276 103.492C45.5907 103.492 40.452 102.235 35.86 99.72C31.3227 97.2053 27.742 93.734 25.118 89.306C22.5487 84.8233 21.264 79.8213 21.264 74.3C21.264 68.7787 22.5487 63.804 25.118 59.376C27.742 54.8933 31.35 51.3947 35.942 48.88C40.534 46.3653 45.6727 45.108 51.358 45.108C55.622 45.108 59.558 45.8187 63.166 47.24C66.774 48.6613 69.8353 50.7387 72.35 53.472L68.496 57.326C64.0133 52.7887 58.3553 50.52 51.522 50.52C46.9847 50.52 42.8573 51.5587 39.14 53.636C35.4227 55.7133 32.498 58.556 30.366 62.164C28.2887 65.772 27.25 69.8173 27.25 74.3C27.25 78.7827 28.2887 82.828 30.366 86.436C32.498 90.044 35.4227 92.8867 39.14 94.964C42.8573 97.0413 46.9847 98.08 51.522 98.08C58.41 98.08 64.068 95.784 68.496 91.192L72.35 95.046C69.8353 97.7793 66.7467 99.884 63.084 101.36C59.476 102.781 55.54 103.492 51.276 103.492ZM106.77 45.6C114.095 45.6 119.835 47.3493 123.99 50.848C128.144 54.3467 130.222 59.1573 130.222 65.28C130.222 71.4027 128.144 76.2133 123.99 79.712C119.835 83.156 114.095 84.878 106.77 84.878H91.3535V103H85.2855V45.6H106.77ZM106.606 79.548C112.291 79.548 116.637 78.318 119.644 75.858C122.65 73.3433 124.153 69.8173 124.153 65.28C124.153 60.6333 122.65 57.08 119.644 54.62C116.637 52.1053 112.291 50.848 106.606 50.848H91.3535V79.548H106.606Z" fill="white"/>
<defs>
<linearGradient id="paint0_linear" x1="76" y1="0" x2="76" y2="152" gradientUnits="userSpaceOnUse">
<stop stop-color="#245194"/>
<stop offset="1" stop-color="#1E69D9"/>
</linearGradient>
</defs>
</svg>
