<svg xmlns="http://www.w3.org/2000/svg" viewBox="0 0 23 22"><path d="M6.83.45C5.54.45 4.44 1.4 4.1 2.7H1.15c-.45 0-.78.38-.78.88 0 .49.36.87.81.87h2.94A2.9 2.9 0 006.87 6.7c1.32 0 2.42-.95 2.78-2.25h11.92c.45 0 .8-.38.8-.87 0-.5-.35-.88-.8-.88H9.65A3 3 0 006.83.45zm.04 1.76c.68 0 1.26.6 1.26 1.37 0 .77-.58 1.36-1.26 1.36S5.6 4.34 5.6 3.58c0-.78.58-1.37 1.26-1.37zM16.56 7.47c-1.3 0-2.4.95-2.75 2.25H1.18c-.48 0-.8.39-.8.88 0 .5.35.88.8.88h12.63a2.9 2.9 0 002.75 2.24c1.32 0 2.42-.94 2.78-2.24h2.23c.45 0 .8-.39.8-.88 0-.5-.35-.88-.8-.88h-2.23a2.93 2.93 0 00-2.78-2.25zm.03 1.76c.68 0 1.26.6 1.26 1.37 0 .77-.58 1.37-1.26 1.37s-1.26-.6-1.26-1.37c0-.77.55-1.37 1.26-1.37zM10.71 15.2c-1.3 0-2.39.95-2.74 2.25H1.18c-.48 0-.8.38-.8.87 0 .5.35.88.8.88H8a2.9 2.9 0 002.74 2.25c1.33 0 2.43-.95 2.78-2.25h8.05c.45 0 .8-.38.8-.88 0-.49-.35-.87-.8-.87h-8.08a2.93 2.93 0 00-2.78-2.25zm.03 1.75c.68 0 1.26.6 1.26 1.37 0 .78-.58 1.37-1.26 1.37-.67 0-1.26-.6-1.26-1.37.04-.77.59-1.37 1.26-1.37z"/></svg>