<svg xmlns="http://www.w3.org/2000/svg" viewBox="0 0 54 53"><path fill="url(#paint0_linear)" d="M52.5 51.23h-3.6a6.14 6.14 0 00-3.48-6.48V15.02c0-.53-.35-.89-.88-.89H31.3V.88c0-.53-.35-.88-.88-.88H6.56c-.53 0-.89.35-.89.88v50.35H1.26c-.53 0-.89.36-.89.89s.36.88.89.88h51.23c.53 0 .88-.35.88-.88s-.35-.89-.88-.89zm-8.84-7a6.37 6.37 0 00-2.82.26.86.86 0 00-.72-.32c-.53 0-.88.35-.88.88v.27a6.18 6.18 0 00-1.06.97 5.6 5.6 0 00-2.74-1.9.9.9 0 00-.62-.22c-.1 0-.19 0-.27.03a5.23 5.23 0 00-2.48.3A5.5 5.5 0 0030 43.47h-.03a5.2 5.2 0 00-.36-.09h-.07a5.4 5.4 0 00-.4-.06l-.12-.01-.13-.01a5.29 5.29 0 00-.44 0h-.18c-.8.06-1.6.29-2.28.69V15.9h17.67v28.33zM7.44 1.77h22.08v12.36h-4.41a.85.85 0 00-.89.89v27.47a6.4 6.4 0 00-1.69-1.21l-.06-.03c-.63-.3-1.31-.5-2.03-.58h-.03a5.95 5.95 0 00-4.14 1.12v-.27c0-.53-.35-.89-.88-.89s-.88.36-.88.89v1.76a1 1 0 00.06.37 6.37 6.37 0 00-.86 2.37 6 6 0 00-2.74 1.03v-.23c0-.53-.35-.89-.88-.89s-.88.36-.88.89v1.76c0 .1.01.2.04.3a6 6 0 00-.86 2.35h-.95V1.77zm6.67 45.95h.05a4.32 4.32 0 01.35-.02c.53 0 .88-.35.88-.88a4.37 4.37 0 014.42-4.42 4.3 4.3 0 014.33 3.8.96.96 0 00.43.59l.04.02a.98.98 0 00.4.11c.3.01.57-.15.72-.37l.08-.09a3.56 3.56 0 012.83-1.41c.6 0 1.2.17 1.73.48a5.36 5.36 0 00-1.42 5.7H10.18a4.45 4.45 0 013.93-3.51zm16.92 3.51a3.77 3.77 0 01-.53-1.85 3.45 3.45 0 011.45-2.83c.13 0 .27-.02.4-.09a3.47 3.47 0 014.95 1.86.8.8 0 00.8.53c.08 0 .17-.03.26-.08.22-.03.4-.2.53-.45.34-.73.87-1.31 1.51-1.72a.8.8 0 00.36-.2c.6-.3 1.3-.47 2.01-.47a4.37 4.37 0 014.42 4.42c0 .27 0 .62-.09.88H31.03z"/><path fill="url(#paint1_linear)" d="M29.52 22.97c-.53 0-.88.35-.88.88v1.77c0 .53.35.88.88.88s.89-.35.89-.88v-1.77c0-.53-.36-.88-.89-.88z"/><path fill="url(#paint2_linear)" d="M29.52 38.87c-.53 0-.88.35-.88.88v1.77c0 .53.35.88.88.88s.89-.35.89-.88v-1.77c0-.53-.36-.88-.89-.88z"/><path fill="url(#paint3_linear)" d="M29.52 28.27c-.53 0-.88.35-.88.88v1.77c0 .53.35.88.88.88s.89-.35.89-.88v-1.77c0-.53-.36-.88-.89-.88z"/><path fill="url(#paint4_linear)" d="M29.52 33.57c-.53 0-.88.35-.88.88v1.77c0 .53.35.88.88.88s.89-.35.89-.88v-1.77c0-.53-.36-.88-.89-.88z"/><path fill="url(#paint5_linear)" d="M29.52 17.67c-.53 0-.88.35-.88.88v1.77c0 .53.35.88.88.88s.89-.35.89-.88v-1.77c0-.53-.36-.88-.89-.88z"/><path fill="url(#paint6_linear)" d="M34.82 26.5c.53 0 .89-.35.89-.88v-1.77c0-.53-.36-.88-.89-.88s-.88.35-.88.88v1.77c0 .53.35.88.88.88z"/><path fill="url(#paint7_linear)" d="M34.82 21.2c.53 0 .89-.35.89-.88v-1.77c0-.53-.36-.88-.89-.88s-.88.35-.88.88v1.77c0 .53.35.88.88.88z"/><path fill="url(#paint8_linear)" d="M34.82 31.8c.53 0 .89-.35.89-.88v-1.77c0-.53-.36-.88-.89-.88s-.88.35-.88.88v1.77c0 .53.35.88.88.88z"/><path fill="url(#paint9_linear)" d="M34.82 37.1c.53 0 .89-.35.89-.88v-1.77c0-.53-.36-.88-.89-.88s-.88.35-.88.88v1.77c0 .53.35.88.88.88z"/><path fill="url(#paint10_linear)" d="M34.82 42.4c.53 0 .89-.35.89-.88v-1.77c0-.53-.36-.88-.89-.88s-.88.35-.88.88v1.77c0 .53.35.88.88.88z"/><path fill="url(#paint11_linear)" d="M40.12 31.8c.53 0 .89-.35.89-.88v-1.77c0-.53-.36-.88-.89-.88s-.88.35-.88.88v1.77c0 .53.35.88.88.88z"/><path fill="url(#paint12_linear)" d="M40.12 26.5c.53 0 .89-.35.89-.88v-1.77c0-.53-.36-.88-.89-.88s-.88.35-.88.88v1.77c0 .53.35.88.88.88z"/><path fill="url(#paint13_linear)" d="M40.12 42.4c.53 0 .89-.35.89-.88v-1.77c0-.53-.36-.88-.89-.88s-.88.35-.88.88v1.77c0 .53.35.88.88.88z"/><path fill="url(#paint14_linear)" d="M40.12 37.1c.53 0 .89-.35.89-.88v-1.77c0-.53-.36-.88-.89-.88s-.88.35-.88.88v1.77c0 .53.35.88.88.88z"/><path fill="url(#paint15_linear)" d="M40.12 21.2c.53 0 .89-.35.89-.88v-1.77c0-.53-.36-.88-.89-.88s-.88.35-.88.88v1.77c0 .53.35.88.88.88z"/><path fill="url(#paint16_linear)" d="M10.1 33.57c.52 0 .87-.36.87-.89v-1.76c0-.53-.35-.89-.88-.89s-.88.36-.88.89v1.76c0 .53.35.89.88.89z"/><path fill="url(#paint17_linear)" d="M10.1 38.87c.52 0 .87-.36.87-.89v-1.76c0-.53-.35-.89-.88-.89s-.88.36-.88.89v1.76c0 .53.35.89.88.89z"/><path fill="url(#paint18_linear)" d="M10.1 44.17c.52 0 .87-.36.87-.89v-1.76c0-.53-.35-.89-.88-.89s-.88.36-.88.89v1.76c0 .53.35.89.88.89z"/><path fill="url(#paint19_linear)" d="M10.1 7.07c.52 0 .87-.36.87-.89V4.42c0-.53-.35-.89-.88-.89s-.88.36-.88.89v1.76c0 .53.35.89.88.89z"/><path fill="url(#paint20_linear)" d="M10.1 12.37c.52 0 .87-.36.87-.89V9.72c0-.53-.35-.89-.88-.89s-.88.36-.88.89v1.76c0 .53.35.89.88.89z"/><path fill="url(#paint21_linear)" d="M10.1 17.67c.52 0 .87-.36.87-.89v-1.76c0-.53-.35-.89-.88-.89s-.88.36-.88.89v1.76c0 .53.35.89.88.89z"/><path fill="url(#paint22_linear)" d="M10.1 22.97c.52 0 .87-.36.87-.89v-1.76c0-.53-.35-.89-.88-.89s-.88.36-.88.89v1.76c0 .53.35.89.88.89z"/><path fill="url(#paint23_linear)" d="M10.1 28.27c.52 0 .87-.36.87-.89v-1.76c0-.53-.35-.89-.88-.89s-.88.36-.88.89v1.76c0 .53.35.89.88.89z"/><path fill="url(#paint24_linear)" d="M15.4 12.37c.52 0 .87-.36.87-.89V9.72c0-.53-.35-.89-.88-.89s-.88.36-.88.89v1.76c0 .53.35.89.88.89z"/><path fill="url(#paint25_linear)" d="M15.4 7.07c.52 0 .87-.36.87-.89V4.42c0-.53-.35-.89-.88-.89s-.88.36-.88.89v1.76c0 .53.35.89.88.89z"/><path fill="url(#paint26_linear)" d="M15.4 22.97c.52 0 .87-.36.87-.89v-1.76c0-.53-.35-.89-.88-.89s-.88.36-.88.89v1.76c0 .53.35.89.88.89z"/><path fill="url(#paint27_linear)" d="M15.4 17.67c.52 0 .87-.36.87-.89v-1.76c0-.53-.35-.89-.88-.89s-.88.36-.88.89v1.76c0 .53.35.89.88.89z"/><path fill="url(#paint28_linear)" d="M15.4 28.27c.52 0 .87-.36.87-.89v-1.76c0-.53-.35-.89-.88-.89s-.88.36-.88.89v1.76c0 .53.35.89.88.89z"/><path fill="url(#paint29_linear)" d="M15.4 33.57c.52 0 .87-.36.87-.89v-1.76c0-.53-.35-.89-.88-.89s-.88.36-.88.89v1.76c0 .53.35.89.88.89z"/><path fill="url(#paint30_linear)" d="M15.4 38.87c.52 0 .87-.36.87-.89v-1.76c0-.53-.35-.89-.88-.89s-.88.36-.88.89v1.76c0 .53.35.89.88.89z"/><path fill="url(#paint31_linear)" d="M20.7 17.67c.52 0 .87-.36.87-.89v-1.76c0-.53-.35-.89-.88-.89s-.88.36-.88.89v1.76c0 .53.35.89.88.89z"/><path fill="url(#paint32_linear)" d="M20.7 12.37c.52 0 .87-.36.87-.89V9.72c0-.53-.35-.89-.88-.89s-.88.36-.88.89v1.76c0 .53.35.89.88.89z"/><path fill="url(#paint33_linear)" d="M20.7 7.07c.52 0 .87-.36.87-.89V4.42c0-.53-.35-.89-.88-.89s-.88.36-.88.89v1.76c0 .53.35.89.88.89z"/><path fill="url(#paint34_linear)" d="M20.7 38.87c.52 0 .87-.36.87-.89v-1.76c0-.53-.35-.89-.88-.89s-.88.36-.88.89v1.76c0 .53.35.89.88.89z"/><path fill="url(#paint35_linear)" d="M20.7 33.57c.52 0 .87-.36.87-.89v-1.76c0-.53-.35-.89-.88-.89s-.88.36-.88.89v1.76c0 .53.35.89.88.89z"/><path fill="url(#paint36_linear)" d="M20.7 28.27c.52 0 .87-.36.87-.89v-1.76c0-.53-.35-.89-.88-.89s-.88.36-.88.89v1.76c0 .53.35.89.88.89z"/><path fill="url(#paint37_linear)" d="M20.7 22.97c.52 0 .87-.36.87-.89v-1.76c0-.53-.35-.89-.88-.89s-.88.36-.88.89v1.76c0 .53.35.89.88.89z"/><path fill="url(#paint38_linear)" d="M26 12.37c.52 0 .87-.36.87-.89V9.72c0-.53-.35-.89-.88-.89s-.88.36-.88.89v1.76c0 .53.35.89.88.89z"/><path fill="url(#paint39_linear)" d="M26 7.07c.52 0 .87-.36.87-.89V4.42c0-.53-.35-.89-.88-.89s-.88.36-.88.89v1.76c0 .53.35.89.88.89z"/><defs><linearGradient id="paint0_linear" x1="26.87" x2="26.87" y1="0" y2="53" gradientUnits="userSpaceOnUse"><stop stop-color="#175EC7"/><stop offset="1" stop-color="#0BC4FF"/></linearGradient><linearGradient id="paint1_linear" x1="29.52" x2="29.52" y1="22.97" y2="26.5" gradientUnits="userSpaceOnUse"><stop stop-color="#175EC7"/><stop offset="1" stop-color="#0BC4FF"/></linearGradient><linearGradient id="paint2_linear" x1="29.52" x2="29.52" y1="38.87" y2="42.4" gradientUnits="userSpaceOnUse"><stop stop-color="#175EC7"/><stop offset="1" stop-color="#0BC4FF"/></linearGradient><linearGradient id="paint3_linear" x1="29.52" x2="29.52" y1="28.27" y2="31.8" gradientUnits="userSpaceOnUse"><stop stop-color="#175EC7"/><stop offset="1" stop-color="#0BC4FF"/></linearGradient><linearGradient id="paint4_linear" x1="29.52" x2="29.52" y1="33.57" y2="37.1" gradientUnits="userSpaceOnUse"><stop stop-color="#175EC7"/><stop offset="1" stop-color="#0BC4FF"/></linearGradient><linearGradient id="paint5_linear" x1="29.52" x2="29.52" y1="17.67" y2="21.2" gradientUnits="userSpaceOnUse"><stop stop-color="#175EC7"/><stop offset="1" stop-color="#0BC4FF"/></linearGradient><linearGradient id="paint6_linear" x1="34.82" x2="34.82" y1="22.97" y2="26.5" gradientUnits="userSpaceOnUse"><stop stop-color="#175EC7"/><stop offset="1" stop-color="#0BC4FF"/></linearGradient><linearGradient id="paint7_linear" x1="34.82" x2="34.82" y1="17.67" y2="21.2" gradientUnits="userSpaceOnUse"><stop stop-color="#175EC7"/><stop offset="1" stop-color="#0BC4FF"/></linearGradient><linearGradient id="paint8_linear" x1="34.82" x2="34.82" y1="28.27" y2="31.8" gradientUnits="userSpaceOnUse"><stop stop-color="#175EC7"/><stop offset="1" stop-color="#0BC4FF"/></linearGradient><linearGradient id="paint9_linear" x1="34.82" x2="34.82" y1="33.57" y2="37.1" gradientUnits="userSpaceOnUse"><stop stop-color="#175EC7"/><stop offset="1" stop-color="#0BC4FF"/></linearGradient><linearGradient id="paint10_linear" x1="34.82" x2="34.82" y1="38.87" y2="42.4" gradientUnits="userSpaceOnUse"><stop stop-color="#175EC7"/><stop offset="1" stop-color="#0BC4FF"/></linearGradient><linearGradient id="paint11_linear" x1="40.12" x2="40.12" y1="28.27" y2="31.8" gradientUnits="userSpaceOnUse"><stop stop-color="#175EC7"/><stop offset="1" stop-color="#0BC4FF"/></linearGradient><linearGradient id="paint12_linear" x1="40.12" x2="40.12" y1="22.97" y2="26.5" gradientUnits="userSpaceOnUse"><stop stop-color="#175EC7"/><stop offset="1" stop-color="#0BC4FF"/></linearGradient><linearGradient id="paint13_linear" x1="40.12" x2="40.12" y1="38.87" y2="42.4" gradientUnits="userSpaceOnUse"><stop stop-color="#175EC7"/><stop offset="1" stop-color="#0BC4FF"/></linearGradient><linearGradient id="paint14_linear" x1="40.12" x2="40.12" y1="33.57" y2="37.1" gradientUnits="userSpaceOnUse"><stop stop-color="#175EC7"/><stop offset="1" stop-color="#0BC4FF"/></linearGradient><linearGradient id="paint15_linear" x1="40.12" x2="40.12" y1="17.67" y2="21.2" gradientUnits="userSpaceOnUse"><stop stop-color="#175EC7"/><stop offset="1" stop-color="#0BC4FF"/></linearGradient><linearGradient id="paint16_linear" x1="10.09" x2="10.09" y1="30.03" y2="33.57" gradientUnits="userSpaceOnUse"><stop stop-color="#175EC7"/><stop offset="1" stop-color="#0BC4FF"/></linearGradient><linearGradient id="paint17_linear" x1="10.09" x2="10.09" y1="35.33" y2="38.87" gradientUnits="userSpaceOnUse"><stop stop-color="#175EC7"/><stop offset="1" stop-color="#0BC4FF"/></linearGradient><linearGradient id="paint18_linear" x1="10.09" x2="10.09" y1="40.63" y2="44.17" gradientUnits="userSpaceOnUse"><stop stop-color="#175EC7"/><stop offset="1" stop-color="#0BC4FF"/></linearGradient><linearGradient id="paint19_linear" x1="10.09" x2="10.09" y1="3.53" y2="7.07" gradientUnits="userSpaceOnUse"><stop stop-color="#175EC7"/><stop offset="1" stop-color="#0BC4FF"/></linearGradient><linearGradient id="paint20_linear" x1="10.09" x2="10.09" y1="8.83" y2="12.37" gradientUnits="userSpaceOnUse"><stop stop-color="#175EC7"/><stop offset="1" stop-color="#0BC4FF"/></linearGradient><linearGradient id="paint21_linear" x1="10.09" x2="10.09" y1="14.13" y2="17.67" gradientUnits="userSpaceOnUse"><stop stop-color="#175EC7"/><stop offset="1" stop-color="#0BC4FF"/></linearGradient><linearGradient id="paint22_linear" x1="10.09" x2="10.09" y1="19.43" y2="22.97" gradientUnits="userSpaceOnUse"><stop stop-color="#175EC7"/><stop offset="1" stop-color="#0BC4FF"/></linearGradient><linearGradient id="paint23_linear" x1="10.09" x2="10.09" y1="24.73" y2="28.27" gradientUnits="userSpaceOnUse"><stop stop-color="#175EC7"/><stop offset="1" stop-color="#0BC4FF"/></linearGradient><linearGradient id="paint24_linear" x1="15.39" x2="15.39" y1="8.83" y2="12.37" gradientUnits="userSpaceOnUse"><stop stop-color="#175EC7"/><stop offset="1" stop-color="#0BC4FF"/></linearGradient><linearGradient id="paint25_linear" x1="15.39" x2="15.39" y1="3.53" y2="7.07" gradientUnits="userSpaceOnUse"><stop stop-color="#175EC7"/><stop offset="1" stop-color="#0BC4FF"/></linearGradient><linearGradient id="paint26_linear" x1="15.39" x2="15.39" y1="19.43" y2="22.97" gradientUnits="userSpaceOnUse"><stop stop-color="#175EC7"/><stop offset="1" stop-color="#0BC4FF"/></linearGradient><linearGradient id="paint27_linear" x1="15.39" x2="15.39" y1="14.13" y2="17.67" gradientUnits="userSpaceOnUse"><stop stop-color="#175EC7"/><stop offset="1" stop-color="#0BC4FF"/></linearGradient><linearGradient id="paint28_linear" x1="15.39" x2="15.39" y1="24.73" y2="28.27" gradientUnits="userSpaceOnUse"><stop stop-color="#175EC7"/><stop offset="1" stop-color="#0BC4FF"/></linearGradient><linearGradient id="paint29_linear" x1="15.39" x2="15.39" y1="30.03" y2="33.57" gradientUnits="userSpaceOnUse"><stop stop-color="#175EC7"/><stop offset="1" stop-color="#0BC4FF"/></linearGradient><linearGradient id="paint30_linear" x1="15.39" x2="15.39" y1="35.33" y2="38.87" gradientUnits="userSpaceOnUse"><stop stop-color="#175EC7"/><stop offset="1" stop-color="#0BC4FF"/></linearGradient><linearGradient id="paint31_linear" x1="20.69" x2="20.69" y1="14.13" y2="17.67" gradientUnits="userSpaceOnUse"><stop stop-color="#175EC7"/><stop offset="1" stop-color="#0BC4FF"/></linearGradient><linearGradient id="paint32_linear" x1="20.69" x2="20.69" y1="8.83" y2="12.37" gradientUnits="userSpaceOnUse"><stop stop-color="#175EC7"/><stop offset="1" stop-color="#0BC4FF"/></linearGradient><linearGradient id="paint33_linear" x1="20.69" x2="20.69" y1="3.53" y2="7.07" gradientUnits="userSpaceOnUse"><stop stop-color="#175EC7"/><stop offset="1" stop-color="#0BC4FF"/></linearGradient><linearGradient id="paint34_linear" x1="20.69" x2="20.69" y1="35.33" y2="38.87" gradientUnits="userSpaceOnUse"><stop stop-color="#175EC7"/><stop offset="1" stop-color="#0BC4FF"/></linearGradient><linearGradient id="paint35_linear" x1="20.69" x2="20.69" y1="30.03" y2="33.57" gradientUnits="userSpaceOnUse"><stop stop-color="#175EC7"/><stop offset="1" stop-color="#0BC4FF"/></linearGradient><linearGradient id="paint36_linear" x1="20.69" x2="20.69" y1="24.73" y2="28.27" gradientUnits="userSpaceOnUse"><stop stop-color="#175EC7"/><stop offset="1" stop-color="#0BC4FF"/></linearGradient><linearGradient id="paint37_linear" x1="20.69" x2="20.69" y1="19.43" y2="22.97" gradientUnits="userSpaceOnUse"><stop stop-color="#175EC7"/><stop offset="1" stop-color="#0BC4FF"/></linearGradient><linearGradient id="paint38_linear" x1="25.99" x2="25.99" y1="8.83" y2="12.37" gradientUnits="userSpaceOnUse"><stop stop-color="#175EC7"/><stop offset="1" stop-color="#0BC4FF"/></linearGradient><linearGradient id="paint39_linear" x1="25.99" x2="25.99" y1="3.53" y2="7.07" gradientUnits="userSpaceOnUse"><stop stop-color="#175EC7"/><stop offset="1" stop-color="#0BC4FF"/></linearGradient></defs></svg>