<svg xmlns="http://www.w3.org/2000/svg" viewBox="0 0 44 53"><path fill="url(#paint0_linear)" d="M5.97 44.17H4.21v1.76h1.76v-1.76z"/><path fill="url(#paint1_linear)" d="M7.74 25.62H5.97v1.76h1.77v-1.76z"/><path fill="url(#paint2_linear)" d="M16.57 3.53h-1.76V5.3h1.76V3.53z"/><path fill="url(#paint3_linear)" d="M20.1 3.53h-1.76V5.3h1.77V3.53z"/><path fill="url(#paint4_linear)" d="M43.07 30.5v-4a3.1 3.1 0 00-4.7-2.62 3.05 3.05 0 00-4.13-1.49V4.42A4.42 4.42 0 0029.82 0H5.1A4.42 4.42 0 00.67 4.42v44.16A4.42 4.42 0 005.1 53h22.08v-3.53h12.37V53h1.77v-3.53h.88c.49 0 .88-.4.88-.89v-7.06c0-.5-.4-.89-.88-.89h-.88V38.2a17.7 17.7 0 001.76-7.69zM2.44 4.42A2.65 2.65 0 015.1 1.77h24.73a2.65 2.65 0 012.65 2.65v2.65H2.44V4.42zm22.97 46.81H5.09a2.65 2.65 0 01-2.65-2.65V8.83h30.03v12.24a2.99 2.99 0 00-2.65 0v-4.73a3.1 3.1 0 10-6.18 0v10.24a5.36 5.36 0 00-1.75 9.9l2.57 1.47c.58.34.95.97.95 1.65v1.03h-.89c-.48 0-.88.4-.88.89v2.65H7.74v1.76h15.9v2.65c0 .5.4.89.88.89h.89v1.76zm15.9-3.53H25.4v-5.3h15.9v5.3zm-1.68-10.11a.88.88 0 00-.09.4v2.64H27.17V39.6c0-1.32-.7-2.53-1.84-3.18l-2.56-1.47a3.58 3.58 0 01-1.78-3.15c0-1.6 1.1-3 2.65-3.4v3.4h1.77V16.34a1.33 1.33 0 012.65 0v11.93h1.76v-4.42a1.33 1.33 0 012.65 0v4.42h1.77v-3.1a1.33 1.33 0 012.65 0v3.1h1.77V26.5a1.33 1.33 0 012.65 0v4c0 2.46-.58 4.89-1.68 7.09z"/><path fill="url(#paint5_linear)" d="M14.7 17.93c-.21-.66-.67-1.2-1.29-1.5l-1.72-.87a.75.75 0 01.34-1.43h.26c.41 0 .75.34.75.76v.13h1.77v-.13c0-1.1-.72-2.07-1.77-2.4v-1h-1.77v1a2.51 2.51 0 00-.37 4.65l1.72.86a.75.75 0 01-.33 1.43h-.26a.76.76 0 01-.76-.75v-.13H9.51v.13c0 1.1.72 2.06 1.76 2.4v1h1.77v-1a2.51 2.51 0 001.65-3.15z"/><path fill="url(#paint6_linear)" d="M16.57 29.15H5.1v1.77h11.48v-1.77z"/><path fill="url(#paint7_linear)" d="M16.57 32.68H5.1v1.77h11.48v-1.77z"/><path fill="url(#paint8_linear)" d="M16.57 36.22H5.1v1.76h11.48v-1.76z"/><path fill="url(#paint9_linear)" d="M16.57 25.62H9.51v1.76h7.06v-1.76z"/><path fill="url(#paint10_linear)" d="M18.34 47.7h-1.77v1.77h1.77V47.7z"/><path fill="url(#paint11_linear)" d="M39.54 44.17h-1.77v1.76h1.77v-1.76z"/><defs><linearGradient id="paint0_linear" x1="5.09" x2="5.09" y1="44.17" y2="45.93" gradientUnits="userSpaceOnUse"><stop stop-color="#175EC7"/><stop offset="1" stop-color="#0BC4FF"/></linearGradient><linearGradient id="paint1_linear" x1="6.86" x2="6.86" y1="25.62" y2="27.38" gradientUnits="userSpaceOnUse"><stop stop-color="#175EC7"/><stop offset="1" stop-color="#0BC4FF"/></linearGradient><linearGradient id="paint2_linear" x1="15.69" x2="15.69" y1="3.53" y2="5.3" gradientUnits="userSpaceOnUse"><stop stop-color="#175EC7"/><stop offset="1" stop-color="#0BC4FF"/></linearGradient><linearGradient id="paint3_linear" x1="19.22" x2="19.22" y1="3.53" y2="5.3" gradientUnits="userSpaceOnUse"><stop stop-color="#175EC7"/><stop offset="1" stop-color="#0BC4FF"/></linearGradient><linearGradient id="paint4_linear" x1="21.87" x2="21.87" y1="0" y2="53" gradientUnits="userSpaceOnUse"><stop stop-color="#175EC7"/><stop offset="1" stop-color="#0BC4FF"/></linearGradient><linearGradient id="paint5_linear" x1="12.16" x2="12.16" y1="11.48" y2="22.08" gradientUnits="userSpaceOnUse"><stop stop-color="#175EC7"/><stop offset="1" stop-color="#0BC4FF"/></linearGradient><linearGradient id="paint6_linear" x1="10.83" x2="10.83" y1="29.15" y2="30.92" gradientUnits="userSpaceOnUse"><stop stop-color="#175EC7"/><stop offset="1" stop-color="#0BC4FF"/></linearGradient><linearGradient id="paint7_linear" x1="10.83" x2="10.83" y1="32.68" y2="34.45" gradientUnits="userSpaceOnUse"><stop stop-color="#175EC7"/><stop offset="1" stop-color="#0BC4FF"/></linearGradient><linearGradient id="paint8_linear" x1="10.83" x2="10.83" y1="36.22" y2="37.98" gradientUnits="userSpaceOnUse"><stop stop-color="#175EC7"/><stop offset="1" stop-color="#0BC4FF"/></linearGradient><linearGradient id="paint9_linear" x1="13.04" x2="13.04" y1="25.62" y2="27.38" gradientUnits="userSpaceOnUse"><stop stop-color="#175EC7"/><stop offset="1" stop-color="#0BC4FF"/></linearGradient><linearGradient id="paint10_linear" x1="17.46" x2="17.46" y1="47.7" y2="49.47" gradientUnits="userSpaceOnUse"><stop stop-color="#175EC7"/><stop offset="1" stop-color="#0BC4FF"/></linearGradient><linearGradient id="paint11_linear" x1="38.66" x2="38.66" y1="44.17" y2="45.93" gradientUnits="userSpaceOnUse"><stop stop-color="#175EC7"/><stop offset="1" stop-color="#0BC4FF"/></linearGradient></defs></svg>