<svg xmlns="http://www.w3.org/2000/svg" viewBox="0 0 21 21"><path d="M3.41 3.3A9.61 9.61 0 0110.53.12c5.43 0 9.84 4.61 9.84 10.31 0 2.82-1.09 5.52-3.03 7.47l-.01.02-.18.16a6.81 6.81 0 01-.76.66c-.15.12-.3.25-.47.36l-.34.22c-.16.1-.3.2-.46.28l-.4.2-.45.22c-.15.07-.3.12-.46.18l-.43.15c-.17.06-.34.1-.5.14-.15.04-.28.08-.43.1-.2.05-.39.07-.59.1l-.36.06a9.5 9.5 0 01-1.95 0l-.36-.06c-.2-.03-.4-.05-.59-.1-.14-.02-.28-.07-.42-.1-.17-.04-.34-.08-.5-.14-.15-.04-.3-.1-.44-.15l-.45-.18-.45-.21-.4-.2-.46-.29-.34-.22a9.92 9.92 0 01-.48-.36l-.28-.22a9.28 9.28 0 01-.48-.44l-.18-.16-.01-.02a10.7 10.7 0 01-.3-14.6zM5 17.13a8.23 8.23 0 002.79 1.7l.36.12c.14.05.28.08.43.12l.34.08c.17.04.34.06.5.08l.3.05a8.15 8.15 0 001.64 0l.29-.05c.17-.02.34-.04.5-.08l.35-.08.43-.12.36-.12a9.36 9.36 0 001.1-.5 6.37 6.37 0 00.67-.4 7.8 7.8 0 001.02-.8l.08-.09a5.9 5.9 0 00-3.83-5.53 3.99 3.99 0 01-3.58 0 5.9 5.9 0 00-3.84 5.53l.1.09zm8-11.09a2.74 2.74 0 00-3.84-1.13 3.03 3.03 0 00.01 5.16c.19.1.39.2.6.26l.1.03.22.05c.13.02.27.04.4.04h.09c.14 0 .28-.02.41-.04l.22-.05c.04 0 .07-.02.1-.03.21-.07.4-.15.6-.26a3.03 3.03 0 001.08-4.03zm-9.33 9.54a7.38 7.38 0 013.76-5.09 4.59 4.59 0 01.26-6.26 4.08 4.08 0 015.96.27 4.6 4.6 0 010 5.99 7.38 7.38 0 013.76 5.09 9.14 9.14 0 00-2-12.35 8.18 8.18 0 00-11.75 2.1 9.16 9.16 0 000 10.25z"/></svg>