<svg xmlns="http://www.w3.org/2000/svg" viewBox="0 0 54 53"><path fill="url(#paint0_linear)" d="M51.95 14.75a3 3 0 00-.04-.03l-6.22-4.3h.18V3.78c0-.52-.4-.95-.9-.95H40.4c-.5 0-.9.43-.9.95v2.33L30.9.16a.88.88 0 00-1.01 0l-21 14.56a2.99 2.99 0 00-.81 4.03 2.74 2.74 0 003.92.82l2.92-2.03v18.42h-1.82c0-.52-.4-.94-.9-.94H4.91c-.5 0-.9.42-.9.94H.36v1.9h3.64v9.46H.37v1.9h3.64c0 .52.41.94.91.94h7.28c.5 0 .91-.42.91-.95v-.36l6.8 2.94a15.2 15.2 0 0011.58.13l14.06-5.57c.83-.33 1.5-1 1.86-1.85.36-.86.38-1.84.05-2.71a3.39 3.39 0 00-1.59-1.8V17.53l2.93 2.03c1.28.9 3.02.56 3.9-.77a2.99 2.99 0 00-.75-4.05zM11.3 48.27H5.83V36.9h5.46v11.36zM41.32 4.73h2.73v4.55l-2.73-1.9V4.73zm4.42 39c-.16.4-.46.7-.84.85l-14.06 5.57a13.43 13.43 0 01-10.24-.11l-7.49-3.24v-8.94h2.31c3.02 0 6 .73 8.7 2.13.89.46 1.87.7 2.87.7h7.05c.76.01 1.37.65 1.36 1.43a1.4 1.4 0 01-1.05 1.38l-.36.03H23.12v1.9H34.1a5.44 5.44 0 002.1-.47l7.6-3.36a1.4 1.4 0 011.14 0c.38.17.67.49.82.88.16.4.15.86-.02 1.26zm-11.7-4.93H27a4.5 4.5 0 01-2.06-.5A20.73 20.73 0 0016.75 36V16.28L30.4 6.82l13.65 9.46v23.34c-.32.03-.65.1-.95.24l-5.9 2.6.03-.34a3.25 3.25 0 00-3.19-3.32zm16.78-20.75a.94.94 0 01-1.01-.06L30.9 4.9a.88.88 0 00-1.01 0L11 18a.96.96 0 01-1.36-.28 1.05 1.05 0 01.27-1.42l20.5-14.2 20.49 14.2c.27.2.44.51.43.86 0 .37-.2.72-.51.9z"/><path fill="url(#paint1_linear)" d="M9.47 44.48H7.65v1.9h1.82v-1.9z"/><path fill="url(#paint2_linear)" d="M33.02 25.83a2.67 2.67 0 00-1.32-1.6l-1.78-.93a.82.82 0 01-.34-1.08c.13-.28.4-.45.7-.45h.26a.8.8 0 01.77.8v.15h1.82v-.14c0-1.18-.74-2.22-1.82-2.57v-1.08H29.5v1.08a2.71 2.71 0 00-1.7 3.37c.21.7.69 1.29 1.32 1.61l1.77.93c.39.2.54.68.35 1.08a.77.77 0 01-.7.45h-.26a.8.8 0 01-.78-.81v-.14h-1.82v.14c0 1.17.74 2.21 1.82 2.56v1.09h1.82V29.2a2.71 2.71 0 001.7-3.37z"/><path fill="url(#paint3_linear)" d="M30.4 15.14c-5.02.01-9.09 4.24-9.1 9.47 0 5.22 4.08 9.46 9.1 9.46 5.03 0 9.1-4.24 9.1-9.46 0-5.23-4.07-9.47-9.1-9.47zm0 17.04c-4.02 0-7.28-3.4-7.28-7.57 0-4.18 3.26-7.57 7.28-7.57 4.02 0 7.28 3.39 7.28 7.57s-3.26 7.57-7.28 7.57z"/><path fill="url(#paint4_linear)" d="M35.86 23.66h-1.82v1.9h1.82v-1.9z"/><path fill="url(#paint5_linear)" d="M26.76 23.66h-1.82v1.9h1.82v-1.9z"/><defs><linearGradient id="paint0_linear" x1="26.78" x2="26.78" y1="0" y2="53" gradientUnits="userSpaceOnUse"><stop stop-color="#175EC7"/><stop offset="1" stop-color="#0BC4FF"/></linearGradient><linearGradient id="paint1_linear" x1="8.56" x2="8.56" y1="44.48" y2="46.37" gradientUnits="userSpaceOnUse"><stop stop-color="#175EC7"/><stop offset="1" stop-color="#0BC4FF"/></linearGradient><linearGradient id="paint2_linear" x1="30.4" x2="30.4" y1="18.93" y2="30.29" gradientUnits="userSpaceOnUse"><stop stop-color="#175EC7"/><stop offset="1" stop-color="#0BC4FF"/></linearGradient><linearGradient id="paint3_linear" x1="30.4" x2="30.4" y1="15.14" y2="34.07" gradientUnits="userSpaceOnUse"><stop stop-color="#175EC7"/><stop offset="1" stop-color="#0BC4FF"/></linearGradient><linearGradient id="paint4_linear" x1="34.95" x2="34.95" y1="23.66" y2="25.55" gradientUnits="userSpaceOnUse"><stop stop-color="#175EC7"/><stop offset="1" stop-color="#0BC4FF"/></linearGradient><linearGradient id="paint5_linear" x1="25.85" x2="25.85" y1="23.66" y2="25.55" gradientUnits="userSpaceOnUse"><stop stop-color="#175EC7"/><stop offset="1" stop-color="#0BC4FF"/></linearGradient></defs></svg>